<svg width="33" height="32" viewBox="0 0 33 32" fill="none" xmlns="http://www.w3.org/2000/svg">
<path d="M28.125 3.5H5.125C4.57187 3.5 4.125 3.94687 4.125 4.5V27.5C4.125 28.0531 4.57187 28.5 5.125 28.5H28.125C28.6781 28.5 29.125 28.0531 29.125 27.5V4.5C29.125 3.94687 28.6781 3.5 28.125 3.5ZM25.2375 10.7969H23.2406C21.675 10.7969 21.3719 11.5406 21.3719 12.6344V15.0437H25.1094L24.6219 18.8156H21.3719V28.5H17.475V18.8188H14.2156V15.0437H17.475V12.2625C17.475 9.03437 19.4469 7.275 22.3281 7.275C23.7094 7.275 24.8938 7.37813 25.2406 7.425V10.7969H25.2375Z" fill="white"/>
</svg>
