<svg width="35" height="34" viewBox="0 0 35 34" fill="none" xmlns="http://www.w3.org/2000/svg">
<path d="M17.6249 12.5738C15.1878 12.5738 13.1989 14.5627 13.1989 16.9998C13.1989 19.4369 15.1878 21.4258 17.6249 21.4258C20.062 21.4258 22.0509 19.4369 22.0509 16.9998C22.0509 14.5627 20.062 12.5738 17.6249 12.5738ZM30.8995 16.9998C30.8995 15.167 30.9161 13.3508 30.8132 11.5213C30.7103 9.3963 30.2255 7.51036 28.6716 5.95646C27.1144 4.39923 25.2317 3.91778 23.1067 3.81485C21.2739 3.71193 19.4577 3.72853 17.6282 3.72853C15.7954 3.72853 13.9792 3.71193 12.1497 3.81485C10.0247 3.91778 8.13878 4.40255 6.58487 5.95646C5.02765 7.51368 4.5462 9.3963 4.44327 11.5213C4.34034 13.3541 4.35694 15.1703 4.35694 16.9998C4.35694 18.8293 4.34034 20.6488 4.44327 22.4783C4.5462 24.6033 5.03097 26.4893 6.58487 28.0432C8.1421 29.6004 10.0247 30.0818 12.1497 30.1848C13.9825 30.2877 15.7987 30.2711 17.6282 30.2711C19.461 30.2711 21.2773 30.2877 23.1067 30.1848C25.2317 30.0818 27.1177 29.5971 28.6716 28.0432C30.2288 26.4859 30.7103 24.6033 30.8132 22.4783C30.9194 20.6488 30.8995 18.8326 30.8995 16.9998ZM17.6249 23.8098C13.8564 23.8098 10.815 20.7684 10.815 16.9998C10.815 13.2313 13.8564 10.1899 17.6249 10.1899C21.3935 10.1899 24.4349 13.2313 24.4349 16.9998C24.4349 20.7684 21.3935 23.8098 17.6249 23.8098ZM24.7138 11.5014C23.8339 11.5014 23.1234 10.7908 23.1234 9.91095C23.1234 9.03107 23.8339 8.32052 24.7138 8.32052C25.5937 8.32052 26.3042 9.03107 26.3042 9.91095C26.3045 10.1199 26.2635 10.3268 26.1837 10.5199C26.1038 10.713 25.9867 10.8884 25.839 11.0361C25.6912 11.1839 25.5158 11.301 25.3227 11.3808C25.1296 11.4607 24.9227 11.5016 24.7138 11.5014Z" fill="white"/>
</svg>
