<svg width="29" height="28" viewBox="0 0 29 28" fill="none" xmlns="http://www.w3.org/2000/svg">
<path fill-rule="evenodd" clip-rule="evenodd" d="M1.7915 3.31084C1.7915 2.74213 2.01742 2.19671 2.41956 1.79457C2.82171 1.39243 3.36712 1.16651 3.93584 1.16651H25.3115C25.5933 1.16605 25.8725 1.22118 26.133 1.32875C26.3935 1.43632 26.6302 1.59422 26.8296 1.7934C27.029 1.99258 27.1872 2.22913 27.295 2.48952C27.4029 2.7499 27.4583 3.029 27.4582 3.31084V24.6865C27.4585 24.9684 27.4032 25.2476 27.2955 25.5081C27.1878 25.7686 27.0298 26.0053 26.8305 26.2047C26.6312 26.4041 26.3946 26.5622 26.1342 26.6701C25.8737 26.7779 25.5946 26.8333 25.3127 26.8332H3.93584C3.65414 26.8332 3.37521 26.7777 3.11497 26.6698C2.85473 26.562 2.61829 26.4039 2.41915 26.2047C2.22002 26.0055 2.06209 25.7689 1.9544 25.5086C1.8467 25.2483 1.79135 24.9694 1.7915 24.6877V3.31084ZM11.9508 10.9525H15.4263V12.6978C15.928 11.6945 17.2113 10.7915 19.1398 10.7915C22.837 10.7915 23.7132 12.79 23.7132 16.4568V23.2492H19.9717V17.2922C19.9717 15.2038 19.47 14.0255 18.196 14.0255C16.4285 14.0255 15.6935 15.296 15.6935 17.2922V23.2492H11.9508V10.9525ZM5.53417 23.0893H9.27684V10.7915H5.53417V23.0882V23.0893ZM9.81234 6.78051C9.81939 7.10096 9.76237 7.41959 9.64462 7.71771C9.52686 8.01582 9.35075 8.28741 9.12661 8.51654C8.90247 8.74567 8.63482 8.92772 8.33937 9.05201C8.04392 9.1763 7.72662 9.24033 7.40609 9.24033C7.08556 9.24033 6.76826 9.1763 6.47281 9.05201C6.17736 8.92772 5.90971 8.74567 5.68557 8.51654C5.46143 8.28741 5.28531 8.01582 5.16756 7.71771C5.0498 7.41959 4.99278 7.10096 4.99984 6.78051C5.01369 6.1515 5.27329 5.55293 5.72304 5.11297C6.17279 4.67302 6.77693 4.42666 7.40609 4.42666C8.03524 4.42666 8.63939 4.67302 9.08914 5.11297C9.53889 5.55293 9.79849 6.1515 9.81234 6.78051Z" fill="white"/>
</svg>
