<svg xmlns="http://www.w3.org/2000/svg" xmlns:xlink="http://www.w3.org/1999/xlink" id="Layer_1" x="0px" y="0px" viewBox="0 0 1080 1080" style="enable-background:new 0 0 1080 1080;" xml:space="preserve" width="600"  height="600" >
<style type="text/css" fill="#6EC1E4">
	.st0{clip-path:url(#SVGID_2_);fill:#FFFFFF;}
	.st1{clip-path:url(#SVGID_2_);fill:#00BBFA;}
	.st2{clip-path:url(#SVGID_2_);fill:#1F61E1;}
	.st3{clip-path:url(#SVGID_2_);fill:#FFBE0F;}
</style>
<g fill="#6EC1E4">
	<defs>
		<rect id="SVGID_1_" width="1080" height="1080"></rect>
	<rect id="SVGID_1_" width="1080" height="1080"></rect></defs>
	<clipPath id="SVGID_2_" fill="#6EC1E4">
		<use xlink:href="#SVGID_1_" style="overflow:visible;" fill="#6EC1E4"></use>
	</clipPath>
	<path class="st0" d="M734.4,389.4c0,101.1-81.9,183-183,183s-183-81.9-183-183s81.9-183,183-183S734.4,288.3,734.4,389.4" fill="#FFFFFF"></path>
	<path class="st1" d="M529.3,269.1c-6.6,0-14.1-1.6-22.1-4.8c-3-1.2-6-2.3-9.3-3.4c-12.7-4.1-27.9-7.9-45.2-11.3   c-1.3-0.3-2.3-1.3-2.6-2.6c-0.3-1.3,0.3-2.6,1.4-3.4c29.5-20.3,64.1-31,100-31c16.1,0,32.1,2.2,47.5,6.5c1.3,0.4,2.3,1.4,2.5,2.8   c0.2,1.4-0.3,2.7-1.5,3.5c-20.7,14.6-41,29.6-50.2,36.9C544.1,266.8,537.2,269.1,529.3,269.1" fill="#00BBFA"></path>
	<path class="st0" d="M551.5,214.9c16.2,0,32,2.2,46.9,6.4c1.1,0.3,1.3,1.8,0.4,2.4c-20.2,14.2-40.8,29.4-50.3,37   c-5.3,4.2-11.7,6.3-19.1,6.3c-6.4,0-13.5-1.6-21.3-4.7c-3-1.2-6-2.3-9.4-3.4c-14.3-4.7-30.2-8.4-45.5-11.4c-0.9-0.2-1.2-1.4-0.4-2   C480.8,226.2,514.8,214.9,551.5,214.9 M551.5,210.5c-36.4,0-71.4,10.9-101.3,31.4c-1.8,1.3-2.7,3.5-2.3,5.6   c0.5,2.2,2.2,3.8,4.3,4.3c17.2,3.3,32.3,7.1,44.9,11.2c3.2,1,6.2,2.1,9.2,3.3c8.3,3.3,16,5,22.9,5c8.4,0,15.7-2.4,21.8-7.2   c9.2-7.3,29.4-22.3,50.1-36.8c1.8-1.3,2.7-3.5,2.4-5.7c-0.4-2.2-2-4-4.1-4.6C584,212.7,567.8,210.5,551.5,210.5" fill="#FFFFFF"></path>
	<path class="st2" d="M555.2,352.6c-8.2,0-14.1-1.9-24.9-6c-11.8-4.5-44.8-18.6-76.7-32.2l-2.1-0.9c-15-6.4-30.2-12.9-43-18.3   c-1.3-0.5-2.2-1.6-2.6-3c-0.4-1.3-0.2-2.8,0.6-3.9c7-10.1,15.1-19.4,24.1-27.8c0.4-0.4,1-0.6,1.5-0.6c0.1,0,0.2,0,0.4,0   c24.2,3.9,44.8,8.6,61.2,14c3.2,1,5.9,2,8.5,3.1c9.6,3.9,18.8,5.8,27.2,5.8c11,0,20.7-3.3,28.9-9.7c15.2-12,40.3-30.2,62.3-45.3   c0.4-0.3,0.8-0.4,1.2-0.4c0.3,0,0.6,0.1,0.9,0.2c23.7,10.5,45.3,26.4,62.4,46.1c1,1.1,1.2,2.6,0.7,4c-0.5,1.4-1.8,2.3-3.2,2.5   c-16.9,1.9-49.5,7.9-77.9,27.3c-11.8,8-21.7,19.1-29.6,32.7c-1.1,1.9-6.9,11.2-15.6,12.2c0,0-0.2,0-0.2,0   C557.8,352.6,556.4,352.6,555.2,352.6" fill="#1F61E1"></path>
	<path class="st0" d="M621.8,229.6c23.8,10.5,44.8,26.1,61.6,45.5c0.9,1.1,0.3,2.7-1.1,2.8c-19,2.1-50.8,8.5-78.9,27.6   c-12,8.2-22.2,19.5-30.3,33.4c-2.3,4-7.5,10.4-13.9,11.2l-0.1,0c-1.4,0.1-2.7,0.1-3.9,0.1c-8,0-13.9-2-24.1-5.9   c-11.8-4.5-45-18.7-77.1-32.4c-15.5-6.6-31.3-13.4-44.6-19c-1.4-0.6-1.9-2.3-1-3.6c7-10,14.9-19.2,23.8-27.5   c19.6,3.2,41.8,7.7,60.9,13.9c3,1,5.7,2,8.3,3c10.7,4.3,20,6,28.1,6c13.7,0,23.6-4.9,30.3-10.2C576,261.9,601.5,243.5,621.8,229.6    M621.8,225.2c-0.9,0-1.7,0.3-2.5,0.8c-22.1,15.1-47.2,33.3-62.5,45.3c-7.8,6.1-17,9.2-27.6,9.2c-8.1,0-17-1.9-26.4-5.7   c-2.6-1-5.4-2-8.6-3.1c-16.6-5.4-37.3-10.1-61.6-14.1c-0.2,0-0.5-0.1-0.7-0.1c-1.1,0-2.2,0.4-3,1.2c-9.1,8.5-17.3,18-24.4,28.2   c-1.2,1.7-1.5,3.8-1,5.8c0.6,2,2,3.6,3.9,4.4c12.8,5.4,28.1,11.9,42.8,18.2l1.8,0.8l0.6,0.3c31.9,13.6,64.9,27.7,76.7,32.2   c10,3.8,16.6,6.1,25.7,6.1c1.4,0,2.7-0.1,4.2-0.2c0,0,0.1,0,0.1,0l0.1,0c7.6-0.9,13.9-7.5,17.3-13.3c7.7-13.4,17.5-24.1,29-32   c28-19.1,60.2-25,76.9-26.9c2.3-0.3,4.2-1.7,5-3.9c0.8-2.1,0.4-4.5-1.1-6.3c-17.3-19.9-39.1-36.1-63.1-46.7   C623,225.4,622.4,225.2,621.8,225.2" fill="#FFFFFF"></path>
	<path class="st1" d="M591.6,345.8c-0.7,0-1.4-0.4-1.9-1c-0.5-0.7-0.5-1.7,0-2.4c6.3-9.7,14-17.7,22.7-23.6   c36.2-24.7,81-25.8,85.9-25.9h0c0.7,0,1.4,0.4,1.9,1c8.7,13.6,15.6,28.3,20.3,43.7c0.4,1.5,0.2,3-0.7,4.2c-0.9,1.2-2.3,1.9-3.8,1.9   c-0.2,0-0.4,0-0.6,0c-14.9-2-31.8-3-50-3c-29.6,0-57.4,2.6-73.5,5.1C591.8,345.8,591.7,345.8,591.6,345.8" fill="#00BBFA"></path>
	<path class="st0" d="M698.3,295.1c8.5,13.3,15.3,27.7,20,43.1c0.5,1.6-0.7,3.3-2.4,3.3c-0.1,0-0.2,0-0.3,0c-16.5-2.2-33.8-3-50.2-3   c-31.2,0-59.5,2.9-73.8,5.1c6.2-9.5,13.6-17.2,22-23C649.2,296.3,693.2,295.2,698.3,295.1 M698.3,290.7L698.3,290.7   c-5.1,0-50.5,1.2-87.2,26.3c-8.9,6.1-16.8,14.3-23.3,24.3c-0.9,1.5-1,3.3,0,4.8c0.8,1.3,2.2,2,3.7,2c0.2,0,0.4,0,0.7,0   c15.3-2.3,43.6-5,73.2-5c18.1,0,34.8,1,49.7,2.9c0.3,0,0.6,0.1,0.9,0.1c2.2,0,4.2-1,5.5-2.8c1.3-1.8,1.7-4.1,1.1-6.2   c-4.8-15.6-11.7-30.5-20.5-44.2C701.2,291.5,699.8,290.7,698.3,290.7" fill="#FFFFFF"></path>
	<path class="st2" d="M500.6,558.5c-0.2,0-0.4,0-0.6-0.1c-52.1-15.8-94.6-55.7-113.9-106.7c-0.3-0.8-0.1-1.8,0.5-2.4   c0.4-0.4,1-0.6,1.5-0.6c0.3,0,0.6,0.1,0.8,0.2c0.7,0.3,1.4,0.6,2.1,0.9c22.8,10.3,83.4,34.3,155.1,34.3c3.6,0,7.2-0.1,10.7-0.2h0   c1.9,0,3.4,0.9,4.3,2.4c0.9,1.5,0.8,3.3,0,4.8c-7,11.8-24,36.1-59.2,66.8C501.7,558.4,501.1,558.5,500.6,558.5" fill="#1F61E1"></path>
	<path class="st0" d="M388.2,451c0.7,0.3,1.4,0.6,2.1,0.9c24.4,11.1,84.6,34.5,156.1,34.5h0c3.5,0,7.1-0.1,10.7-0.2c0,0,0.1,0,0.1,0   c2,0,3.2,2.2,2.2,3.9c-6.6,11.1-23.4,35.5-58.7,66.2C448.8,540.6,407.2,501.3,388.2,451 M388.2,446.6c-1.1,0-2.2,0.4-3.1,1.2   c-1.3,1.2-1.7,3.1-1.1,4.7c19.5,51.6,62.6,92,115.3,108c0.4,0.1,0.9,0.2,1.3,0.2c1.1,0,2.1-0.4,2.9-1.1   c35.4-30.9,52.5-55.4,59.6-67.3c1.3-2.2,1.3-4.8,0.1-7c-1.2-2.2-3.6-3.5-6-3.5c0,0-0.2,0-0.2,0c-3.5,0.1-7,0.2-10.6,0.2   c-71.3,0-131.7-23.9-154.3-34.1c-0.7-0.3-1.5-0.6-2.2-1C389.3,446.7,388.7,446.6,388.2,446.6" fill="#FFFFFF"></path>
	<path class="st3" d="M551.5,566.1c-9.9,0-19.9-0.8-29.6-2.5c-0.8-0.1-1.5-0.7-1.7-1.5c-0.2-0.8,0-1.7,0.6-2.3   c43.8-40.4,56.2-68.8,56.7-70l0.3-0.6c0.1-0.2,13.1-36.4,47.6-59.9c22.4-15.2,57.4-18.1,76.3-18.4c1,0,1.9,0,2.9,0   c6.6,0,13.3,0.4,19.9,1.2c0.6,0.1,1.1,0.4,1.5,0.8c0.4,0.5,0.5,1.1,0.4,1.7c-6,41.7-26.8,79.9-58.7,107.8   C635.5,550.6,594.2,566.1,551.5,566.1" fill="#FFBE0F"></path>
	<path class="st0" d="M704.5,413.2c6.5,0,13.1,0.4,19.7,1.2c-12.1,84.5-84.8,149.5-172.7,149.5c-10,0-19.7-0.8-29.2-2.4   c43.9-40.5,56.5-69,57.3-70.7l0.2-0.5c0.1-0.4,13-36,46.8-58.9c21.9-14.9,56.5-17.7,75.1-18C702.6,413.2,703.5,413.2,704.5,413.2    M704.5,408.8c-1,0-1.9,0-2.9,0c-19.1,0.4-54.6,3.3-77.5,18.8c-33.8,22.9-47.3,58-48.4,60.9l-0.2,0.4c-0.5,1.2-12.7,29.2-56.2,69.3   c-1.2,1.1-1.7,2.9-1.2,4.5c0.5,1.6,1.8,2.8,3.5,3.1c9.8,1.7,19.9,2.5,30,2.5c43.3,0,85.1-15.7,117.7-44.1   c32.3-28.2,53.4-66.9,59.4-109.1c0.2-1.2-0.1-2.4-0.9-3.3c-0.7-0.9-1.8-1.6-3-1.7C718,409.2,711.2,408.8,704.5,408.8" fill="#FFFFFF"></path>
	<path class="st2" d="M540.3,470.5c-66.5-1.3-122.5-23.6-143.5-33.1c-0.5-0.2-1-0.4-1.5-0.6c-10.5-4.6-17.9-14.4-19.3-25.8   c-0.9-7.1-1.3-14.4-1.3-21.6c0-28.8,7.1-57.4,20.5-82.7c0.4-0.7,1.2-1.2,1.9-1.2c0.3,0,0.6,0.1,0.9,0.2   c14.5,6.1,33.2,14.1,49.6,21.1c30.7,13.1,65.5,28,77.7,32.7c12,4.5,23.2,6.8,33.3,6.8c10.8,0,18.6-2.6,24.3-4.4l0.6-0.2   c1.3-0.4,2.4-0.8,3.4-1.1c6.3-1.7,39.8-6.2,78.2-6.2c22.2,0,42,1.5,58.8,4.5c0.9,0.2,1.6,0.9,1.8,1.8c1.5,9.4,2.3,19.1,2.3,28.7   c0,0.8,0,1.7,0,2.5c-0.1,3.4-2.9,6.2-6.3,6.2c-0.2,0-0.4,0-0.6,0c-5.6-0.5-11.2-0.8-16.7-0.8c-1.1,0-2.2,0-3.2,0   c-24.9,0.5-59.7,4.4-83.7,20.8c-12.1,8.2-23,18.6-32.5,30.9c-10.3,13.5-26.7,21.5-43.8,21.5L540.3,470.5z" fill="#1F61E1"></path>
	<path class="st0" d="M397.2,307.7c14.2,6,32.1,13.6,49.6,21.1c32.3,13.8,65.6,28.1,77.8,32.7c13.9,5.3,25,7,34.1,7   c11.2,0,19.1-2.6,25-4.5c1.5-0.5,2.8-0.9,3.9-1.2c6.3-1.7,39.8-6.1,77.6-6.1c19.4,0,39.9,1.2,58.4,4.4c1.5,9.2,2.3,18.7,2.3,28.3   c0,0.8,0,1.7,0,2.5c0,2.2-1.9,4-4.1,4c-0.1,0-0.3,0-0.4,0c-5.7-0.5-11.3-0.8-16.9-0.8c-1.1,0-2.2,0-3.3,0   c-25.2,0.5-60.4,4.5-84.9,21.1c-14,9.5-24.8,20.8-33,31.4c-10,13.1-25.6,20.6-42.1,20.6c-0.3,0-0.7,0-1,0   c-65.3-1.2-120-22.7-142.6-32.9c-0.5-0.2-1-0.4-1.5-0.7c-9.8-4.3-16.7-13.4-18-24c-0.9-7-1.3-14.1-1.3-21.3   C377,359.9,384.3,332.1,397.2,307.7 M397.2,303.3c-1.6,0-3.1,0.9-3.9,2.3c-13.6,25.6-20.8,54.6-20.8,83.8c0,7.3,0.4,14.7,1.3,21.9   c1.5,12.1,9.4,22.7,20.6,27.5c0.5,0.2,0.9,0.4,1.4,0.6c21.1,9.6,77.5,32,144.3,33.3c0.4,0,0.7,0,1.1,0c17.8,0,34.9-8.4,45.6-22.4   c9.3-12.1,20.1-22.4,31.9-30.4c23.6-16,57.9-19.9,82.5-20.4c1.1,0,2.1,0,3.2,0c5.4,0,11,0.3,16.5,0.8c0.3,0,0.5,0,0.8,0   c4.6,0,8.4-3.8,8.5-8.4c0-0.9,0-1.7,0-2.6c0-9.8-0.8-19.6-2.4-29.1c-0.3-1.8-1.7-3.3-3.6-3.6c-16.9-3-36.8-4.5-59.2-4.5   c-38.6,0-72.4,4.5-78.8,6.3c-1.1,0.3-2.2,0.7-3.5,1.1l-0.6,0.2c-5.5,1.8-13.1,4.3-23.6,4.3c-9.9,0-20.8-2.3-32.6-6.7   c-12.2-4.6-47-19.5-77.7-32.6c-16.4-7-35.1-15-49.6-21.1C398.4,303.4,397.8,303.3,397.2,303.3" fill="#FFFFFF"></path>
	<path class="st2" d="M436.8,868.3c-2.4,0-4.4-2-4.4-4.4v-10.5c-12.1,9.5-25.9,14.3-41.1,14.3c-13.4,0-26-3.9-37.3-11.6   c-11.3-7.6-20.3-18.2-26.9-31.4c-6.6-13.1-9.9-27.6-9.9-43.1c0-23.6,7.2-44,21.5-60.8c14.4-17,32.1-25.6,52.7-25.6   c15.2,0,29,4.8,41.1,14.3v-22.5c0-27,22-49,49-49c2.4,0,4.4,2,4.4,4.4v176.8C485.8,846.3,463.8,868.3,436.8,868.3 M403.2,741.4   c-9.2,0-16.9,3.8-23.5,11.5c-6.8,7.9-10.1,17.3-10.1,28.7c0,11.4,3.3,20.8,10.1,28.7c6.6,7.7,14.3,11.5,23.5,11.5   c9.2,0,16.9-3.8,23.5-11.5c6.8-7.9,10.1-17.3,10.1-28.7c0-11.4-3.3-20.7-10.1-28.7C420,745.2,412.4,741.4,403.2,741.4" fill="#1F61E1"></path>
	<path class="st0" d="M481.3,642.5v176.8c0,24.6-20,44.6-44.6,44.6v-20.4c-13,13.2-28.2,19.8-45.5,19.8c-12.6,0-24.2-3.6-34.9-10.8   c-10.7-7.2-19.2-17.1-25.4-29.7c-6.3-12.6-9.4-26.3-9.4-41.1c0-22.6,6.8-41.9,20.4-57.9c13.6-16,30-24,49.3-24   c17.4,0,32.5,6.6,45.5,19.8v-32.3C436.8,662.4,456.7,642.5,481.3,642.5 M403.2,826.2c10.5,0,19.4-4.3,26.8-13   c7.4-8.7,11.1-19.2,11.1-31.6c0-12.3-3.7-22.9-11.1-31.6c-7.4-8.7-16.4-13-26.8-13c-10.5,0-19.4,4.3-26.8,13   c-7.4,8.7-11.1,19.2-11.1,31.6c0,12.4,3.7,22.9,11.1,31.6C383.7,821.8,392.7,826.2,403.2,826.2 M481.3,633.7   c-29.4,0-53.4,24-53.4,53.4v14c-11.1-6.8-23.4-10.3-36.7-10.3c-21.9,0-40.7,9.1-56,27.1c-14.9,17.6-22.5,39-22.5,63.6   c0,16.2,3.5,31.3,10.4,45.1c6.9,13.9,16.5,25,28.4,33c12.1,8.2,25.5,12.3,39.8,12.3c13.3,0,25.6-3.4,36.7-10.3v2.1   c0,4.9,3.9,8.8,8.8,8.8c29.4,0,53.4-24,53.4-53.4V642.5C490.2,637.6,486.2,633.7,481.3,633.7 M403.2,817.3   c-7.8,0-14.4-3.3-20.1-9.9c-6.1-7.1-9-15.5-9-25.8c0-10.3,3-18.7,9-25.8c5.7-6.7,12.3-9.9,20.1-9.9c7.8,0,14.4,3.3,20.1,9.9   c6.1,7.1,9,15.6,9,25.8c0,10.3-3,18.7-9,25.8C417.6,814.1,411,817.3,403.2,817.3" fill="#FFFFFF"></path>
	<path class="st2" d="M605.7,868.6c-1.2,0-2.3-0.5-3.1-1.3c-0.8-0.8-1.3-2-1.3-3.1c0.2-47.3,0.2-78.6,0-93.2c0-12.2-2.2-21-6.4-26.4   c-3.9-4.9-9-7.3-15.7-7.3l-0.9,0c-14.1,0.4-25.6,12.6-25.6,27v54c0,27-22,49-49,49c-2.4,0-4.4-2-4.4-4.4V642.8c0-2.4,2-4.4,4.4-4.4   c27,0,49,22,49,49v12.5c8.2-4,16.9-6.9,25.7-8.6c6.1-1.2,12.1-1.8,17.9-1.8c4.9,0,9.8,0.4,14.5,1.3c10.7,2,19.9,7.4,27.4,16.2   c7.4,8.7,11.8,20.5,13.1,34.9c0,0.1,0,0.3,0,0.4v39.4c0,13.1,0.1,27.2,0.2,42l0,0.5c0.1,11.8-4.5,22.9-12.8,31.3   c-8.3,8.4-19.4,13-31.2,13H605.7z" fill="#1F61E1"></path>
	<path class="st0" d="M503.6,642.8c24.6,0,44.6,20,44.6,44.6v19.8c9.8-5.7,20.1-9.5,30.9-11.6c5.8-1.1,11.5-1.7,17-1.7   c4.7,0,9.3,0.4,13.7,1.2c9.7,1.8,18,6.7,24.8,14.8c6.8,8.1,10.8,18.9,12.1,32.5v39.4c0,12.5,0,26.5,0.2,42.1l0,0.5   c0.1,22-17.6,39.9-39.6,39.9h-1.7c0.2-47.5,0.2-78.6,0-93.3c0-13.2-2.5-22.9-7.4-29c-4.8-6-11.1-9-19.1-9c-0.3,0-0.5,0-0.8,0   c-0.1,0-0.2,0-0.3,0c-16.8,0.5-29.9,14.7-29.9,31.4v54c0,24.6-20,44.6-44.6,44.6V642.8 M503.6,634c-4.9,0-8.8,3.9-8.8,8.8v220.1   c0,2.3,0.9,4.6,2.6,6.2c1.7,1.7,3.9,2.6,6.2,2.6c29.4,0,53.4-24,53.4-53.4v-54c0-12.1,9.6-22.3,21.3-22.6l0.2,0c0.2,0,0.4,0,0.6,0   c5.3,0,9.2,1.8,12.2,5.6c3.6,4.5,5.5,12.6,5.5,23.5c0,0,0,0.1,0,0.1c0.2,14.5,0.2,45.9,0,93.1c0,2.3,0.9,4.6,2.6,6.3   c1.7,1.7,3.9,2.6,6.3,2.6h1.7c13,0,25.2-5.1,34.4-14.3s14.2-21.5,14.1-34.5l0-0.5c-0.1-14.9-0.2-29.1-0.2-42v-39.4   c0-0.3,0-0.5,0-0.8c-1.4-15.4-6.2-27.9-14.1-37.4c-8.1-9.6-18.2-15.6-30-17.7c-5-0.9-10.1-1.4-15.3-1.4c-6.1,0-12.3,0.6-18.7,1.9   c-7,1.4-13.8,3.4-20.4,6.1v-5.6C557,657.9,533.1,634,503.6,634" fill="#FFFFFF"></path>
	<path class="st2" d="M850.1,869.2c-30.9,0-57.8-19.8-67.2-49.2l-14.1-44.6L740,866.1c-0.6,1.8-2.3,3.1-4.2,3.1   c-30.2,0-55.4-21.7-59.9-51.6L657.4,694c-0.2-1.3,0.2-2.6,1-3.5c0.8-1,2.1-1.5,3.3-1.5c23.9,0,44,17.9,46.8,41.6l7.5,63.7   l29.7-102.2c0.5-1.9,2.3-3.2,4.2-3.2c24.1,0,45.7,16.2,52.4,39.4l19.2,66l11.9-101.5c0.3-2.2,2.1-3.9,4.4-3.9   c10.8,0,21.1,4.7,28.1,12.9c7.1,8.2,10.2,19,8.6,29.7l-20.1,133.9C854.2,867.6,852.3,869.2,850.1,869.2" fill="#1F61E1"></path>
	<path class="st0" d="M837.9,693.4c20,0,35.3,17.8,32.3,37.6l-20.1,133.9c-28.8,0-54.3-18.6-63-46.1l-16.2-51   c-0.3-1.1-1.2-1.6-2.2-1.6c-0.9,0-1.8,0.5-2.2,1.6l-30.8,97.1c-27.8,0-51.4-20.3-55.5-47.8l-18.6-123.6c21.7,0,39.9,16.2,42.4,37.7   l8.8,75c0.1,1.2,1.1,1.9,2.1,1.9c0.9,0,1.7-0.5,2-1.5l32.9-113c22.3,0,42,14.7,48.2,36.2l22.4,76.9c0.3,1,1.2,1.5,2,1.5   c1,0,2-0.6,2.1-1.9L837.9,693.4 M837.9,684.5c-4.5,0-8.2,3.3-8.8,7.8l-9.4,79.8l-13.1-45.1c-7.3-25-30.6-42.5-56.7-42.5   c-3.9,0-7.4,2.6-8.5,6.4l-23.6,81.3l-4.9-42.1c-3-26-25-45.5-51.2-45.5c-2.6,0-5,1.1-6.7,3.1c-1.7,1.9-2.4,4.5-2,7.1l18.6,123.6   c2.3,15.4,10.1,29.4,21.9,39.6c11.8,10.1,26.8,15.7,42.4,15.7c3.8,0,7.2-2.5,8.4-6.2l24.6-77.4l9.9,31.3   c9.9,31.2,38.6,52.2,71.4,52.2c4.4,0,8.1-3.2,8.7-7.5L879,732.2c1.8-12-1.7-24.1-9.6-33.3C861.5,689.8,850,684.5,837.9,684.5" fill="#FFFFFF"></path>
	<path class="st2" d="M932.1,869.1c-25.6,0-46.5-22.3-46.5-49.8v-126c0-2.4,2-4.4,4.4-4.4c25.6,0,46.5,22.3,46.5,49.8v126   C936.5,867.1,934.5,869.1,932.1,869.1" fill="#1F61E1"></path>
	<path class="st0" d="M890,693.3c23.2,0,42.1,20.3,42.1,45.4v126c-23.2,0-42.1-20.3-42.1-45.4V693.3 M890,684.5   c-4.9,0-8.8,3.9-8.8,8.8v126c0,29.9,22.8,54.2,50.9,54.2c4.9,0,8.8-3.9,8.8-8.8v-126C940.9,708.8,918.1,684.5,890,684.5" fill="#FFFFFF"></path>
	<path class="st2" d="M230.5,868.1c-50.4,0-87-36.2-87-86.2v-0.6c0-49.5,35.5-86.7,82.6-86.7c60.1,0,81.4,48.6,81.4,90.3v0.6   c0,3.4-0.2,5.8-0.4,8.6c-0.3,4-3.6,7-7.6,7H198.3c5,14.5,16.3,22.2,32.9,22.2c6,0,11.3-0.8,16.1-2.5c5.4-1.9,11-2.9,16.7-2.9   c12.5,0,24.6,4.6,34.1,13c1.8,1.6,2,4.2,0.5,6.1C281.9,857.6,259,868.1,230.5,868.1 M254.2,764.3c-3.6-15.8-13.8-24.8-28.1-24.8   c-18.7,0-26,14.6-28.7,24.8H254.2z" fill="#1F61E1"></path>
	<path class="st0" d="M226.1,699.1c52.8,0,77,41,77,85.9v0.6c0,3.3-0.2,5.6-0.4,8.2c-0.1,1.7-1.5,3-3.2,3H196   c-1.8,0-3.1,1.7-2.6,3.5c5.2,18.1,18.9,27.5,37.8,27.5c6.5,0,12.2-0.9,17.6-2.8c5-1.8,10.1-2.6,15.2-2.6c11.3,0,22.5,4.2,31.2,11.9   h0c-14.8,18.3-36,29.5-64.6,29.5c-47.5,0-82.6-33.3-82.6-81.7v-0.6C147.9,736.2,180.1,699.1,226.1,699.1 M194.9,768.7h61.6   c1.6,0,2.7-1.4,2.5-3c-3.4-18.4-14.9-30.7-32.9-30.7c-17.6,0-29.4,11.9-33.6,30.6C192.1,767.2,193.3,768.7,194.9,768.7    M226.1,690.2c-24.4,0-46.7,9.6-62.8,27.1c-15.6,16.9-24.2,39.6-24.2,64.1v0.6c0,52.5,38.5,90.6,91.4,90.6   c29.5,0,54.2-11.3,71.5-32.8c3-3.7,2.5-9-1-12.1c-10.3-9.1-23.5-14.1-37.1-14.1c-6.2,0-12.3,1.1-18.2,3.1   c-4.4,1.6-9.1,2.3-14.7,2.3c-12.2,0-21-4.5-26.1-13.3h94.5c6.3,0,11.5-4.9,12-11.1c0.2-2.9,0.4-5.4,0.4-8.9v-0.6   c0-25.4-7.3-48.6-20.6-65.3C276,700.4,253.4,690.2,226.1,690.2 M203.5,759.9c3.3-7.8,9.9-16,22.6-16c12.9,0,19.2,8.2,22.1,16H203.5   z" fill="#FFFFFF"></path>
</g>
</svg>